<svg width="150" height="307" viewBox="0 0 150 307" fill="none" xmlns="http://www.w3.org/2000/svg">
<g clip-path="url(#clip0_2297_364)">
<path d="M126.206 306.742L22.4902 306.264C10.0155 306.201 -0.0547286 296.01 -8.38324e-05 283.493L1.10062 22.5754C1.15526 10.05 11.3114 -0.0548547 23.7938 -2.20366e-05L127.51 0.477805C139.984 0.532638 150.047 10.7237 150 23.2412L148.899 284.158C148.845 296.684 138.681 306.789 126.206 306.734V306.742Z" fill="#2D2D2D"/>
<path d="M127.369 9.48605L107.26 9.39205C104.567 9.37638 102.365 11.6637 102.358 14.4915L102.342 18.1496C102.334 20.9774 100.133 23.2647 97.4395 23.249L58.2435 23.0689C55.5503 23.0532 53.3724 20.7502 53.3802 17.9224L53.3958 14.2643C53.4036 11.4365 51.2334 9.13355 48.5324 9.11788L41.4598 9.08655L23.8564 9.00822C15.1132 8.96905 8.00155 16.0503 7.96252 24.8157L6.89304 279.49C6.85401 288.255 13.9032 295.391 22.6464 295.438L126.159 295.916C134.902 295.955 142.014 288.874 142.053 280.109L143.123 25.4345C143.162 16.6691 136.112 9.53304 127.369 9.49388V9.48605Z" fill="white"/>
<path d="M37.4083 35.508C37.4083 35.6177 33.9422 35.7116 29.6721 35.7116C25.402 35.7116 21.936 35.6177 21.936 35.508C21.936 35.3983 25.402 35.3043 29.6721 35.3043C33.9422 35.3043 37.4083 35.3983 37.4083 35.508Z" fill="#263238"/>
<path d="M37.4083 32.5706C37.4083 32.6803 33.9422 32.7743 29.6721 32.7743C25.402 32.7743 21.936 32.6803 21.936 32.5706C21.936 32.4609 25.402 32.3669 29.6721 32.3669C33.9422 32.3669 37.4083 32.4609 37.4083 32.5706Z" fill="#263238"/>
<path d="M37.4083 29.6409C37.4083 29.7506 33.9422 29.8446 29.6721 29.8446C25.402 29.8446 21.936 29.7506 21.936 29.6409C21.936 29.5313 25.402 29.4373 29.6721 29.4373C33.9422 29.4373 37.4083 29.5313 37.4083 29.6409Z" fill="#263238"/>
<path d="M106.401 55.8588C106.401 55.9685 93.2162 56.0625 76.9477 56.0625C60.6792 56.0625 47.4941 55.9685 47.4941 55.8588C47.4941 55.7491 60.6792 55.6552 76.9477 55.6552C93.2162 55.6552 106.401 55.7491 106.401 55.8588Z" fill="#263238"/>
<path d="M34.4497 234.95C34.4497 234.95 34.2311 235.177 33.8017 235.537C33.3724 235.89 32.7322 236.399 31.9438 237.01C30.3669 238.24 28.1655 239.916 25.7299 241.741C25.7299 241.091 25.7299 241.561 25.7299 241.42V241.428H25.7455L25.7767 241.459L25.8314 241.499L25.9485 241.585L26.1749 241.757L26.6198 242.094C26.9165 242.321 27.2053 242.54 27.4942 242.752C28.064 243.183 28.6183 243.606 29.1491 244.005C30.1796 244.796 31.1163 245.517 31.936 246.144C32.7244 246.755 33.3568 247.264 33.7939 247.616C34.2233 247.969 34.4575 248.18 34.4419 248.204C34.4262 248.227 34.1608 248.063 33.7002 247.749C33.1694 247.373 32.5293 246.919 31.7643 246.379C30.929 245.768 29.9766 245.071 28.9305 244.311C28.3997 243.911 27.8376 243.504 27.26 243.073C26.9711 242.862 26.6745 242.642 26.3778 242.415L25.9251 242.078L25.6987 241.906L25.5816 241.82L25.5269 241.781L25.4957 241.757H25.4801V241.741C25.4801 241.593 25.4801 242.063 25.4801 241.412C27.9235 239.579 30.1483 237.942 31.7721 236.775C32.5293 236.235 33.1772 235.78 33.7081 235.404C34.1686 235.091 34.434 234.926 34.4497 234.95Z" fill="#FAFAFA"/>
<path d="M119.978 65H32C23.7157 65 17 71.7157 17 80V271.629C17 279.913 23.7157 286.629 32 286.629H119.978C128.262 286.629 134.978 279.913 134.978 271.629V80C134.978 71.7157 128.262 65 119.978 65Z" fill="#FFEAF6"/>
<path d="M97.1385 47.6653H55.7576C55.0654 47.6653 54.5043 48.2264 54.5043 48.9186C54.5043 49.6108 55.0654 50.1719 55.7576 50.1719H97.1385C97.8307 50.1719 98.3919 49.6108 98.3919 48.9186C98.3919 48.2264 97.8307 47.6653 97.1385 47.6653Z" fill="#525252"/>
<g filter="url(#filter0_i_2297_364)">
<path d="M80.5663 131.093L84.4071 135.053C86.0874 136.793 88.5679 137.513 90.9184 136.963L96.2895 135.713C100.08 134.833 103.841 137.253 104.611 141.063L105.701 146.473C106.182 148.843 107.872 150.793 110.142 151.603L115.343 153.453C119.004 154.753 120.865 158.833 119.454 162.453L117.444 167.594C116.564 169.844 116.934 172.394 118.414 174.314L121.785 178.674C124.165 181.754 123.525 186.184 120.375 188.464L115.914 191.704C113.953 193.124 112.883 195.464 113.093 197.875L113.573 203.365C113.913 207.235 110.973 210.625 107.092 210.835L101.581 211.145C99.1601 211.285 96.9997 212.675 95.8694 214.815L93.2989 219.695C91.4885 223.135 87.1876 224.395 83.8069 222.485L79.0059 219.765C76.8955 218.575 74.325 218.575 72.2145 219.765L67.4135 222.485C64.0328 224.405 59.7319 223.135 57.9215 219.695L55.351 214.815C54.2208 212.675 52.0603 211.285 49.6398 211.145L44.1287 210.835C40.2479 210.615 37.3173 207.235 37.6473 203.365L38.1274 197.875C38.3375 195.464 37.2673 193.124 35.3068 191.704L30.8459 188.464C27.6952 186.184 27.0651 181.754 29.4356 178.674L32.8063 174.314C34.2866 172.404 34.6567 169.854 33.7765 167.594L31.7661 162.453C30.3558 158.833 32.2162 154.763 35.8769 153.453L41.078 151.603C43.3585 150.793 45.0489 148.843 45.519 146.473L46.6092 141.063C47.3793 137.253 51.1401 134.833 54.9309 135.713L60.302 136.963C62.6625 137.513 65.1331 136.783 66.8134 135.053L70.6542 131.093C73.3648 128.302 77.8357 128.302 80.5462 131.093H80.5663Z" fill="#B21071"/>
</g>
<path d="M52.1489 169.566C51.206 162.612 54.8201 157.63 60.7738 156.803C66.7275 155.993 71.459 159.778 72.4193 166.784C73.3621 173.791 69.8004 178.72 63.8467 179.53C57.893 180.339 53.0917 176.502 52.1489 169.548V169.566ZM66.5704 167.594C65.9767 163.175 64.0038 161.292 61.4198 161.644C58.9057 161.996 57.4565 164.408 58.0327 168.773C58.6263 173.139 60.6691 175.076 63.1832 174.724C65.7498 174.372 67.164 172.013 66.5704 167.594ZM85.1996 153.951L92.1485 153L69.7829 198.049L62.834 199L85.1996 153.951ZM82.5807 185.198C81.6379 178.245 85.252 173.263 91.1533 172.453C97.107 171.643 101.908 175.481 102.851 182.434C103.794 189.388 100.18 194.37 94.2262 195.197C88.3249 196.007 83.5235 192.17 82.5807 185.216V185.198ZM96.9499 183.227C96.3562 178.861 94.3659 176.924 91.7993 177.276C89.2851 177.628 87.8186 179.987 88.4122 184.406C89.0058 188.825 91.0485 190.708 93.5627 190.356C96.1293 190.004 97.526 187.592 96.9499 183.227Z" fill="white"/>
</g>
<defs>
<filter id="filter0_i_2297_364" x="28" y="129" width="95.2247" height="97.3821" filterUnits="userSpaceOnUse" color-interpolation-filters="sRGB">
<feFlood flood-opacity="0" result="BackgroundImageFix"/>
<feBlend mode="normal" in="SourceGraphic" in2="BackgroundImageFix" result="shape"/>
<feColorMatrix in="SourceAlpha" type="matrix" values="0 0 0 0 0 0 0 0 0 0 0 0 0 0 0 0 0 0 127 0" result="hardAlpha"/>
<feOffset dy="3"/>
<feGaussianBlur stdDeviation="2"/>
<feComposite in2="hardAlpha" operator="arithmetic" k2="-1" k3="1"/>
<feColorMatrix type="matrix" values="0 0 0 0 0 0 0 0 0 0 0 0 0 0 0 0 0 0 0.25 0"/>
<feBlend mode="normal" in2="shape" result="effect1_innerShadow_2297_364"/>
</filter>
<clipPath id="clip0_2297_364">
<rect width="150" height="306.742" fill="white"/>
</clipPath>
</defs>
</svg>
